<svg xmlns="http://www.w3.org/2000/svg" style="display:none" aria-hidden="true">
  <!-- Chart / planilhas -->
  <symbol id="icon-chart" viewBox="0 0 24 24" fill="none" stroke="currentColor" stroke-width="2" stroke-linecap="round" stroke-linejoin="round"><path d="M3 3v18h18"/><path d="M7 14l4-4 4 4 5-5"/></symbol>
  <!-- Visibilidade -->
  <symbol id="icon-eye" viewBox="0 0 24 24" fill="none" stroke="currentColor" stroke-width="2"><path d="M1 12s4-8 11-8 11 8 11 8-4 8-11 8-11-8-11-8z"/><circle cx="12" cy="12" r="3"/></symbol>
  <!-- Consolidar ativos -->
  <symbol id="icon-layers" viewBox="0 0 24 24" fill="none" stroke="currentColor" stroke-width="2"><path d="M12 2L2 7l10 5 10-5-10-5z"/><path d="M2 17l10 5 10-5"/></symbol>
  <!-- Intuição / dados -->
  <symbol id="icon-bulb" viewBox="0 0 24 24" fill="none" stroke="currentColor" stroke-width="2"><path d="M9 18h6"/><path d="M10 22h4"/><path d="M12 2a7 7 0 0 0-4 12.69V17h8v-2.31A7 7 0 0 0 12 2z"/></symbol>
  <!-- Previsibilidade -->
  <symbol id="icon-calendar" viewBox="0 0 24 24" fill="none" stroke="currentColor" stroke-width="2"><rect x="3" y="4" width="18" height="18" rx="2" ry="2"/><path d="M16 2v4M8 2v4M3 10h18"/></symbol>
  <!-- Gestão -->
  <symbol id="icon-briefcase" viewBox="0 0 24 24" fill="none" stroke="currentColor" stroke-width="2"><rect x="2" y="7" width="20" height="14" rx="2"/><path d="M16 7V5a2 2 0 0 0-2-2h-4a2 2 0 0 0-2 2v2"/></symbol>
  <!-- Painel / rentabilidade -->
  <symbol id="icon-chart-pie" viewBox="0 0 24 24" fill="none" stroke="currentColor" stroke-width="2"><path d="M21.21 15.89A10 10 0 1 1 8 2.83"/><path d="M22 12A10 10 0 0 0 12 2v10z"/></symbol>
  <!-- IA -->
  <symbol id="icon-cpu" viewBox="0 0 24 24" fill="none" stroke="currentColor" stroke-width="2"><rect x="4" y="4" width="16" height="16" rx="2"/><path d="M9 9h6v6H9z"/><path d="M9 1v3M15 1v3M9 20v3M15 20v3M1 9h3M1 15h3M20 9h3M20 15h3"/></symbol>
  <!-- Segurança -->
  <symbol id="icon-shield" viewBox="0 0 24 24" fill="none" stroke="currentColor" stroke-width="2"><path d="M12 22s8-4 8-10V5l-8-3-8 3v7c0 6 8 10 8 10z"/></symbol>
  <!-- Institucional -->
  <symbol id="icon-building" viewBox="0 0 24 24" fill="none" stroke="currentColor" stroke-width="2"><path d="M3 21h18"/><path d="M5 21V7l7-4 7 4v14"/><path d="M9 9v.01M9 12v.01M9 15v.01M15 9v.01M15 12v.01M15 15v.01"/></symbol>
  <!-- Clipboard -->
  <symbol id="icon-clipboard" viewBox="0 0 24 24" fill="none" stroke="currentColor" stroke-width="2"><path d="M16 4h2a2 2 0 0 1 2 2v14a2 2 0 0 1-2 2H6a2 2 0 0 1-2-2V6a2 2 0 0 1 2-2h2"/><rect x="8" y="2" width="8" height="4" rx="1"/><path d="M9 12h6M9 16h6"/></symbol>
  <!-- Bell -->
  <symbol id="icon-bell" viewBox="0 0 24 24" fill="none" stroke="currentColor" stroke-width="2"><path d="M18 8A6 6 0 0 0 6 8c0 7-3 9-3 9h18s-3-2-3-9"/><path d="M13.73 21a2 2 0 0 1-3.46 0"/></symbol>
  <!-- Target -->
  <symbol id="icon-target" viewBox="0 0 24 24" fill="none" stroke="currentColor" stroke-width="2"><circle cx="12" cy="12" r="10"/><circle cx="12" cy="12" r="6"/><circle cx="12" cy="12" r="2"/></symbol>
  <!-- App / smartphone -->
  <symbol id="icon-phone" viewBox="0 0 24 24" fill="none" stroke="currentColor" stroke-width="2"><rect x="5" y="2" width="14" height="20" rx="2"/><path d="M12 18h.01"/></symbol>
</svg>
